<svg width="448" height="512" viewBox="0 0 448 512" fill="none" xmlns="http://www.w3.org/2000/svg">
<path d="M0 84V56C0 42.7 10.7 32 24 32H136L145.4 13.3C149.4 5.1 157.7 0 166.8 0H281.1C290.2 0 298.5 5.1 302.6 13.3L312 32H424C437.3 32 448 42.7 448 56V84C448 90.6 442.6 96 436 96H12C5.4 96 0 90.6 0 84ZM416 140V464C416 490.5 394.5 512 368 512H80C53.5 512 32 490.5 32 464V140C32 133.4 37.4 128 44 128H404C410.6 128 416 133.4 416 140ZM144 208C144 199.2 136.8 192 128 192C119.2 192 112 199.2 112 208V432C112 440.8 119.2 448 128 448C136.8 448 144 440.8 144 432V208ZM240 208C240 199.2 232.8 192 224 192C215.2 192 208 199.2 208 208V432C208 440.8 215.2 448 224 448C232.8 448 240 440.8 240 432V208ZM336 208C336 199.2 328.8 192 320 192C311.2 192 304 199.2 304 208V432C304 440.8 311.2 448 320 448C328.8 448 336 440.8 336 432V208Z" fill="black"/>
</svg>
